<svg width="38" height="38" viewBox="0 0 38 38" fill="none" xmlns="http://www.w3.org/2000/svg">
<path d="M25.9268 5.14559C27.7625 5.15107 29.5213 5.8827 30.8193 7.18068C32.1173 8.47867 32.8489 10.2375 32.8544 12.0732V25.9268C32.8489 27.7625 32.1173 29.5213 30.8193 30.8193C29.5213 32.1173 27.7625 32.8489 25.9268 32.8544H12.0732C10.2375 32.8489 8.47867 32.1173 7.18068 30.8193C5.8827 29.5213 5.15107 27.7625 5.14559 25.9268V12.0732C5.15107 10.2375 5.8827 8.47867 7.18068 7.18068C8.47867 5.8827 10.2375 5.15107 12.0732 5.14559H25.9268ZM25.9268 2.375H12.0732C6.73906 2.375 2.375 6.73906 2.375 12.0732V25.9268C2.375 31.2609 6.73906 35.625 12.0732 35.625H25.9268C31.2609 35.625 35.625 31.2609 35.625 25.9268V12.0732C35.625 6.73906 31.2609 2.375 25.9268 2.375Z" fill="#C32AA3"/>
<path d="M28.005 12.0732C27.5939 12.0732 27.1922 11.9513 26.8504 11.7229C26.5087 11.4946 26.2423 11.17 26.085 10.7903C25.9277 10.4106 25.8866 9.99274 25.9668 9.58962C26.047 9.1865 26.2449 8.81622 26.5355 8.52559C26.8261 8.23495 27.1964 8.03703 27.5995 7.95685C28.0027 7.87666 28.4205 7.91782 28.8002 8.0751C29.18 8.23239 29.5045 8.49875 29.7329 8.8405C29.9612 9.18224 30.0831 9.58403 30.0831 9.99504C30.0837 10.2681 30.0303 10.5386 29.9261 10.791C29.8219 11.0434 29.6688 11.2727 29.4757 11.4658C29.2826 11.6589 29.0533 11.8119 28.8009 11.9162C28.5485 12.0204 28.278 12.0738 28.005 12.0732ZM19 13.4581C20.0961 13.4581 21.1676 13.7831 22.0789 14.3921C22.9903 15.001 23.7006 15.8666 24.1201 16.8792C24.5395 17.8919 24.6493 19.0061 24.4354 20.0812C24.2216 21.1562 23.6938 22.1437 22.9187 22.9187C22.1437 23.6938 21.1562 24.2216 20.0812 24.4354C19.0062 24.6493 17.8919 24.5395 16.8792 24.1201C15.8666 23.7006 15.001 22.9903 14.3921 22.0789C13.7831 21.1676 13.4581 20.0961 13.4581 19C13.4597 17.5307 14.044 16.122 15.083 15.083C16.122 14.044 17.5307 13.4597 19 13.4581ZM19 10.6875C17.3559 10.6875 15.7488 11.175 14.3818 12.0884C13.0148 13.0018 11.9494 14.3 11.3203 15.8189C10.6911 17.3379 10.5265 19.0092 10.8472 20.6217C11.168 22.2342 11.9597 23.7153 13.1222 24.8778C14.2847 26.0404 15.7658 26.832 17.3783 27.1528C18.9908 27.4735 20.6621 27.3089 22.1811 26.6798C23.7 26.0506 24.9982 24.9852 25.9116 23.6182C26.825 22.2512 27.3125 20.6441 27.3125 19C27.3125 16.7954 26.4367 14.6811 24.8778 13.1222C23.3189 11.5633 21.2046 10.6875 19 10.6875Z" fill="#C32AA3"/>
</svg>
