<svg width="38" height="38" viewBox="0 0 38 38" fill="none" xmlns="http://www.w3.org/2000/svg">
<path d="M32.9657 2.375H5.21609C3.6998 2.375 2.375 3.46602 2.375 4.96449V32.7757C2.375 34.2824 3.6998 35.625 5.21609 35.625H32.9576C34.482 35.625 35.625 34.2735 35.625 32.7757V4.96449C35.6339 3.46602 34.482 2.375 32.9657 2.375ZM12.6818 30.0905H7.9184V15.2802H12.6818V30.0905ZM10.4648 13.0284H10.4307C8.90625 13.0284 7.91914 11.8936 7.91914 10.473C7.91914 9.02648 8.93223 7.9184 10.4908 7.9184C12.0494 7.9184 13.0031 9.01832 13.0373 10.473C13.0365 11.8936 12.0494 13.0284 10.4648 13.0284ZM30.0905 30.0905H25.3271V21.9925C25.3271 20.0524 24.6339 18.7269 22.9106 18.7269C21.5939 18.7269 20.8146 19.6175 20.468 20.4851C20.3382 20.7968 20.3033 21.2214 20.3033 21.6548V30.0905H15.5399V15.2802H20.3033V17.3412C20.9965 16.3541 22.0793 14.9336 24.5991 14.9336C27.7259 14.9336 30.0913 16.9946 30.0913 21.4381L30.0905 30.0905Z" fill="#0A66C2"/>
</svg>
