<svg width="34" height="34" viewBox="0 0 34 34" fill="none" xmlns="http://www.w3.org/2000/svg">
<path d="M17 0.375C7.81914 0.375 0.375 8.0121 0.375 17.423C0.375 24.9562 5.13984 31.3391 11.7453 33.5953C11.838 33.6154 11.9325 33.6254 12.0273 33.625C12.6434 33.625 12.8809 33.1723 12.8809 32.7789C12.8809 32.3707 12.866 31.302 12.8586 29.877C12.3087 30.0059 11.7461 30.0731 11.1813 30.0773C7.98242 30.0773 7.25508 27.591 7.25508 27.591C6.49805 25.6242 5.40703 25.0973 5.40703 25.0973C3.95977 24.0805 5.39961 24.0508 5.51094 24.0508H5.51836C7.18828 24.1992 8.0641 25.8172 8.0641 25.8172C8.8953 27.2719 10.0086 27.6801 11.0031 27.6801C11.6607 27.6669 12.3082 27.5152 12.9031 27.2348C13.0516 26.1363 13.482 25.3867 13.957 24.9562C10.2684 24.5258 6.38672 23.0637 6.38672 16.5324C6.38672 14.6695 7.03242 13.148 8.0938 11.9605C7.92305 11.5301 7.35156 9.7934 8.257 7.44805C8.3785 7.41898 8.5033 7.4065 8.6281 7.41094C9.2293 7.41094 10.5875 7.64101 12.8289 9.1996C15.5524 8.4376 18.4328 8.4376 21.1562 9.1996C23.3977 7.64101 24.7559 7.41094 25.357 7.41094C25.4818 7.4065 25.6067 7.41898 25.7281 7.44805C26.6336 9.7934 26.0621 11.5301 25.8914 11.9605C26.9527 13.1555 27.5984 14.677 27.5984 16.5324C27.5984 23.0785 23.7094 24.5184 20.0059 24.9414C20.5996 25.4684 21.134 26.5074 21.134 28.0957C21.134 30.3742 21.1117 32.2148 21.1117 32.7715C21.1117 33.1723 21.3418 33.625 21.9578 33.625C22.0575 33.6254 22.157 33.6155 22.2547 33.5953C28.8676 31.3391 33.625 24.9488 33.625 17.423C33.625 8.0121 26.1809 0.375 17 0.375Z" fill="white"/>
</svg>
