<svg width="38" height="38" viewBox="0 0 38 38" fill="none" xmlns="http://www.w3.org/2000/svg">
<path fill-rule="evenodd" clip-rule="evenodd" d="M30.7807 7.20664C29.2437 5.66888 27.4177 4.45031 25.4079 3.6211C23.398 2.79188 21.244 2.36839 19.0698 2.375C9.94531 2.375 2.5175 9.7657 2.51379 18.8516C2.50975 21.7447 3.27238 24.5873 4.72402 27.0898L2.375 35.625L11.1514 33.3339C13.5807 34.6499 16.3002 35.3387 19.0631 35.3378H19.0698C28.1935 35.3378 35.6205 27.9463 35.625 18.8612C35.6305 16.6944 35.2051 14.5482 34.3734 12.5474C33.5418 10.5466 32.3205 8.7311 30.7807 7.20664ZM19.0698 32.5568H19.0638C16.6008 32.5575 14.1825 31.8984 12.0605 30.6479L11.5581 30.351L6.35016 31.7107L7.74027 26.6572L7.41297 26.1376C6.03575 23.9572 5.30608 21.4305 5.30887 18.8516C5.30887 11.3013 11.4846 5.1582 19.075 5.1582C22.7161 5.1517 26.2108 6.59176 28.7903 9.16165C31.3698 11.7315 32.8228 15.2208 32.8299 18.862C32.827 26.413 26.6542 32.5568 19.0698 32.5568ZM26.6171 22.3005C26.2037 22.0942 24.1679 21.0982 23.7908 20.9609C23.4138 20.8236 23.1355 20.7545 22.8601 21.1672C22.5848 21.5798 21.7914 22.5031 21.5502 22.7814C21.3089 23.0598 21.0677 23.0902 20.6543 22.8839C20.2409 22.6775 18.9072 22.2434 17.3271 20.8406C16.0973 19.7489 15.2675 18.4011 15.0263 17.9891C14.7851 17.5772 15.0004 17.3538 15.2074 17.149C15.3937 16.9642 15.6208 16.668 15.8279 16.4276C16.035 16.1871 16.104 16.0149 16.2413 15.7403C16.3786 15.4657 16.3103 15.2252 16.2071 15.0196C16.104 14.8141 15.2764 12.7871 14.9321 11.9626C14.5959 11.1595 14.2552 11.2686 14.0014 11.256C13.7602 11.2441 13.4818 11.2412 13.208 11.2412C12.9986 11.2466 12.7926 11.2952 12.6029 11.3838C12.4131 11.4724 12.2436 11.5992 12.1051 11.7563C11.7258 12.1689 10.6571 13.1664 10.6571 15.1911C10.6571 17.2158 12.1414 19.1752 12.3463 19.4498C12.5511 19.7244 15.2631 23.8829 19.4127 25.6663C20.1832 25.9963 20.9705 26.2857 21.7713 26.5332C22.7621 26.8464 23.6639 26.8026 24.3764 26.6965C25.1713 26.5785 26.8256 25.7005 27.1693 24.7386C27.5129 23.7767 27.5136 22.9529 27.4105 22.7814C27.3073 22.61 27.0312 22.5061 26.6171 22.3005Z" fill="#25D366"/>
</svg>
