<svg width="38" height="38" viewBox="0 0 38 38" fill="none" xmlns="http://www.w3.org/2000/svg">
<path d="M19 38C8.52351 38 0 29.4765 0 19C0 8.52351 8.52351 0 19 0C29.4765 0 38 8.52351 38 19C38 29.4765 29.4765 38 19 38ZM19 2.92308C10.1394 2.92308 2.92308 10.1394 2.92308 19C2.92308 27.8606 10.1394 35.0769 19 35.0769C27.8606 35.0769 35.0769 27.8651 35.0769 19C35.0769 10.1349 27.8651 2.92308 19 2.92308Z" fill="white"/>
<path d="M25.1688 22.6316C23.5799 22.6316 22.0449 21.9205 20.8459 20.6301C19.66 19.3327 18.9509 17.6643 18.837 15.9033C18.7027 13.9967 19.2826 12.2421 20.4697 10.9646C21.6568 9.68711 23.316 9 25.1688 9C27.0079 9 28.6726 9.70184 29.8561 10.9766C31.0395 12.2513 31.634 14.0161 31.4998 15.9051C31.3837 17.6651 30.6749 19.3322 29.4908 20.6301C28.2909 21.9205 26.7568 22.6316 25.1688 22.6316ZM10.5719 22.9411C7.85437 22.9411 5.46462 20.4072 5.24546 17.2922C5.13314 15.697 5.62443 14.2224 6.63073 13.1401C7.63703 12.0579 9.02504 11.4822 10.571 11.4822C12.117 11.4822 13.5041 12.0754 14.504 13.153C15.5039 14.2307 16.0107 15.7154 15.8966 17.2978C15.6738 20.4082 13.2849 22.9411 10.5719 22.9411ZM33.9991 28.46C33.8539 28.0271 33.5005 27.5657 32.7919 27.1282C30.6496 25.8083 28.0142 25.1101 25.1688 25.1101C22.3773 25.1101 19.6688 25.8378 17.5412 27.1595C15.1441 28.6488 13.5333 30.8207 12.8841 33.4392C12.7306 34.0554 12.5069 35.2021 12.7462 35.8441C16.5855 37.3167 20.8154 37.3843 24.6991 36.035C28.5828 34.6857 31.8742 32.0051 34 28.46H33.9991ZM10.5546 32.7051C11.2002 30.1069 12.5745 27.9405 14.7067 26.1887C14.8075 26.1048 14.8842 25.9952 14.9287 25.8713C14.9732 25.7473 14.9839 25.6136 14.9598 25.4841C14.9356 25.3546 14.8775 25.2339 14.7913 25.1348C14.7052 25.0356 14.5943 24.9616 14.4702 24.9204C13.3744 24.5676 12.1234 24.3788 10.5719 24.3788C8.39678 24.3788 6.0874 24.9729 4.34965 26.0524C3.85655 26.3591 3.37257 26.477 3 26.582C4.49582 29.9166 6.97644 32.7036 10.1026 34.562L10.266 34.5491C10.3018 33.9264 10.3984 33.3087 10.5546 32.7051Z" fill="white"/>
</svg>
